Coordinates
version=1
nRows=9
nColumns=63
inDegrees=yes

Units are S.I. units (second, meters, Newtons, ...)
If the header above contains a line with 'inDegrees', this indicates whether rotational values are in degrees (yes) or radians (no).

endheader
time	pelvis_tilt	pelvis_list	pelvis_rotation	pelvis_tx	pelvis_ty	pelvis_tz	hip_flexion_r	hip_adduction_r	hip_rotation_r	knee_angle_r	knee_angle_r_beta	ankle_angle_r	subtalar_angle_r	mtp_angle_r	hip_flexion_l	hip_adduction_l	hip_rotation_l	knee_angle_l	knee_angle_l_beta	ankle_angle_l	subtalar_angle_l	mtp_angle_l	L5_S1_Flex_Ext	L5_S1_Lat_Bending	L5_S1_axial_rotation	L4_L5_Flex_Ext	L4_L5_Lat_Bending	L4_L5_axial_rotation	L3_L4_Flex_Ext	L3_L4_Lat_Bending	L3_L4_axial_rotation	L2_L3_Flex_Ext	L2_L3_Lat_Bending	L2_L3_axial_rotation	L1_L2_Flex_Ext	L1_L2_Lat_Bending	L1_L2_axial_rotation	L1_T12_Flex_Ext	L1_T12_Lat_Bending	L1_T12_axial_rotation	Abs_r3	Abs_r2	Abs_r1	Abs_t1	Abs_t2	neck_flexion	neck_bending	neck_rotation	arm_flex_r	arm_add_r	arm_rot_r	elbow_flex_r	pro_sup_r	wrist_flex_r	wrist_dev_r	arm_flex_l	arm_add_l	arm_rot_l	elbow_flex_l	pro_sup_l	wrist_flex_l	wrist_dev_l
0.000000	-3.753792	-4.503882	86.816099	0.148752	0.530299	0.818984	4.163286	-7.520835	-7.562810	7.230418	0.126195	27.088508	16.826016	0.000000	2.988878	2.956895	-15.468556	2.827821	0.049355	16.261894	-7.364214	0.000000	0.160279	-0.755275	2.419750	0.297655	-1.004515	2.570985	0.263323	-1.836375	2.570985	0.183183	-1.836375	2.117281	0.148835	-1.540156	1.966047	0.091584	-1.169920	1.814813	1.144860	-8.543817	13.457924	0.000000	0.000000	26.069172	-2.416007	-16.718445	12.115911	0.241775	24.211935	51.086475	41.499154	-2.040006	13.231021	27.589989	-3.990719	57.994995	44.384410	82.642014	10.219605	12.883903
0.016949	-3.373507	-4.326270	87.489547	0.148036	0.530829	0.817630	3.669775	-7.096563	-8.109186	6.758038	0.117950	27.079684	16.122232	0.000000	2.750481	2.532586	-15.040646	2.898171	0.050583	16.456620	-6.612954	0.000000	0.154533	-0.703032	2.288985	0.286983	-0.935033	2.432047	0.253882	-1.709352	2.432047	0.176615	-1.709352	2.002862	0.143499	-1.433623	1.859800	0.088300	-1.088997	1.716739	1.103812	-7.952840	12.730649	0.000000	0.000000	26.270510	-2.111520	-15.707385	11.925088	0.098997	24.082336	51.138116	43.896782	-1.699567	13.206813	26.989215	-4.019643	57.362835	44.783935	79.348027	9.487129	13.907337
0.033898	-3.053546	-4.195581	88.138213	0.147277	0.531262	0.816609	3.264440	-6.747871	-8.584229	6.356705	0.110945	27.117547	15.560355	0.000000	2.600208	2.189605	-14.502990	2.978201	0.051979	16.600775	-6.170301	0.000000	0.151160	-0.659486	2.166571	0.280720	-0.877117	2.301982	0.248341	-1.603475	2.301982	0.172761	-1.603475	1.895750	0.140368	-1.344824	1.760339	0.086373	-1.021544	1.624928	1.079724	-7.460239	12.049817	0.000000	0.000000	26.414929	-1.877972	-14.985873	11.771752	-0.037575	23.959848	51.189996	45.863252	-1.446082	13.344695	26.532175	-4.015631	56.850398	45.068691	76.748799	8.866103	14.671283
0.050847	-2.790360	-4.107978	88.756989	0.146493	0.531604	0.815895	2.942420	-6.469595	-8.989700	6.022833	0.105118	27.195165	15.126755	0.000000	2.530125	1.921619	-13.881052	3.066979	0.053529	16.699344	-5.999000	0.000000	0.149961	-0.624034	2.052887	0.278493	-0.829965	2.181192	0.246371	-1.517275	2.181192	0.171390	-1.517275	1.796276	0.139254	-1.272529	1.667970	0.085688	-0.966628	1.539665	1.071157	-7.059193	11.417539	0.000000	0.000000	26.509635	-1.708513	-14.522633	11.649918	-0.169040	23.843339	51.244899	47.444668	-1.270797	13.614112	26.205267	-3.984312	56.449798	45.253824	74.762559	8.353819	15.204095
0.067797	-2.580399	-4.059622	89.340766	0.145699	0.531860	0.815465	2.698853	-6.256569	-9.327359	5.752836	0.100406	27.305606	14.807801	0.000000	2.532293	1.722292	-13.200295	3.163573	0.055215	16.757310	-6.061793	0.000000	0.150733	-0.596072	1.948312	0.279927	-0.792776	2.070081	0.247640	-1.449289	2.070081	0.172273	-1.449289	1.704773	0.139971	-1.215510	1.583003	0.086129	-0.923315	1.461234	1.076673	-6.742884	10.835925	0.000000	0.000000	26.561837	-1.596292	-14.286389	11.553600	-0.296497	23.731679	51.305604	48.687132	-1.164962	13.984508	25.994886	-3.931312	56.153149	45.354478	73.307536	7.947569	15.534126
0.084746	-2.420115	-4.046677	89.884437	0.144912	0.532036	0.815292	2.528878	-6.103627	-9.598968	5.543129	0.096746	27.441938	14.589862	0.000000	2.598777	1.585290	-12.486185	3.267052	0.057021	16.779653	-6.321422	0.000000	0.153276	-0.574998	1.853226	0.284649	-0.764747	1.969052	0.251817	-1.398050	1.969052	0.175179	-1.398050	1.621572	0.142332	-1.172536	1.505746	0.087582	-0.890672	1.389919	1.094835	-6.504491	10.307085	0.000000	0.000000	26.578740	-1.534460	-14.245867	11.476813	-0.421046	23.623738	51.374896	49.636747	-1.119824	14.425329	25.887428	-3.862259	55.952565	45.385797	72.301961	7.644642	15.689729
0.101695	-2.305960	-4.065302	90.382893	0.144148	0.532138	0.815354	2.427634	-6.005605	-9.806288	5.390124	0.094075	27.597230	14.459308	0.000000	2.721640	1.504279	-11.764186	3.376485	0.058931	16.771359	-6.740629	0.000000	0.157388	-0.560209	1.768008	0.292284	-0.745078	1.878508	0.258572	-1.362092	1.878508	0.179878	-1.362092	1.547007	0.146150	-1.142378	1.436506	0.089931	-0.867764	1.326006	1.124204	-6.337195	9.833130	0.000000	0.000000	26.567552	-1.516166	-14.369791	11.413571	-0.543785	23.518384	51.455554	50.339616	-1.126631	14.906017	25.869289	-3.782780	55.840159	45.362927	71.664062	7.442331	15.699257
0.118644	-2.234385	-4.111661	90.831024	0.143423	0.532170	0.815624	2.390260	-5.957338	-9.951080	5.290235	0.092332	27.764548	14.402507	0.000000	2.892946	1.472924	-11.059763	3.490941	0.060928	16.737409	-7.282159	0.000000	0.162867	-0.551102	1.693038	0.302460	-0.732965	1.798853	0.267574	-1.339949	1.798853	0.186141	-1.339949	1.481408	0.151238	-1.123807	1.375593	0.093062	-0.853657	1.269778	1.163342	-6.234174	9.416169	0.000000	0.000000	26.535479	-1.534561	-14.626884	11.357889	-0.665816	23.414487	51.550362	50.841841	-1.176631	15.396018	25.926865	-3.698503	55.808044	45.301012	71.312070	7.337927	15.591062
0.135593	-2.201841	-4.181915	91.223724	0.142753	0.532139	0.816079	2.411894	-5.953660	-10.035105	5.239877	0.091453	27.936962	14.405829	0.000000	3.104757	1.484891	-10.398379	3.609487	0.062997	16.682786	-7.908753	0.000000	0.169513	-0.547074	1.628695	0.314802	-0.727608	1.730488	0.278492	-1.330156	1.730488	0.193736	-1.330156	1.425108	0.157410	-1.115593	1.323315	0.096860	-0.847418	1.221521	1.210812	-6.188610	9.058313	0.000000	0.000000	26.489728	-1.582793	-14.985872	11.303781	-0.788236	23.310916	51.662102	51.189524	-1.261072	15.864775	26.046553	-3.615055	55.848335	45.215196	71.164214	7.328720	15.393498
